<svg width="2427" height="1459" viewBox="0 0 2427 1459" fill="none" xmlns="http://www.w3.org/2000/svg">
<path fill-rule="evenodd" clip-rule="evenodd" d="M207.516 1009.66V1225.51C205.804 1244.86 197.919 1271.49 149.438 1276.6C127.999 1277.41 112.448 1273.23 103.525 1264.37C92.3188 1253.13 92.0724 1235.64 92.8376 1217.25V1009.66H0V1241.89C3.9039 1358.17 89.3617 1359.23 130.45 1359.74C160.319 1355.54 184.884 1344.72 207.516 1313.33V1345.81H300.393V1009.66H207.516V1009.66ZM513.551 1004.26C483.02 1004.26 454.694 1021.91 435.927 1050.08V1009.66H343.05V1345.81H435.927V1132.47C437.626 1113.14 445.589 1086.44 494.005 1081.38C515.483 1080.55 530.995 1084.67 539.944 1093.61C551.176 1104.86 551.397 1122.34 550.592 1140.76V1345.82H643.508V1122.12C643.521 1045 598.542 1004.26 513.551 1004.26V1004.26ZM690.99 896.561V980.359H783.867V896.561H690.99ZM0.129698 896.561V980.359H645.207V896.561H0.129698V896.561ZM0.129698 1375.02V1458.81H783.802V1375.02H0.129698V1375.02ZM946.533 1375.02V1458.81H2426.47V1375.02H946.533ZM826.874 896.561V980.359H1490.68V896.561H826.874ZM1801.71 896.561V980.359H2421.12V896.561H1801.71ZM690.99 1009.66V1345.81H783.867V1009.66H690.99V1009.66ZM999.787 1004.26C953.07 1007.08 937.234 1026.78 918.908 1049.66C918.908 1049.66 917.624 1051.17 916.949 1052.02V1009.66H824.073V1458.31H916.949V1318.12C939.556 1342.38 959.101 1359.74 1001.24 1359.74C1047.72 1359.74 1070.42 1350.94 1098.55 1322.18C1161.87 1257.73 1160.02 1112.48 1094.95 1044.82C1084.04 1033.95 1050.98 1000.88 999.787 1004.26V1004.26ZM1051.04 1184.4C1051.04 1214.8 1040.23 1239.87 1036.92 1246.8C1025.2 1268.81 1006.01 1281.4 984.314 1281.4C971.345 1281.4 947.169 1276.89 931.035 1246.61C927.792 1239.87 916.962 1214.8 916.962 1184.4C916.962 1154.08 927.779 1129.01 931.099 1122.08C947.156 1091.96 971.345 1087.42 984.314 1087.42C1006.01 1087.42 1025.2 1100.1 1036.98 1122.23C1040.23 1129.01 1051.04 1154.08 1051.04 1184.4V1184.4ZM1325.57 1004.26C1280.36 1004.26 1238.08 1019.2 1209.63 1045.25C1178.04 1073.9 1159.92 1123.8 1159.92 1182.01C1159.92 1240.25 1178.04 1290.08 1209.63 1318.73C1238.08 1344.77 1280.36 1359.74 1325.57 1359.74C1370.79 1359.74 1413.07 1344.77 1441.45 1318.7C1473.07 1290.08 1491.17 1240.25 1491.17 1182.01C1491.17 1123.8 1473.07 1073.9 1441.45 1045.25C1413.02 1019.22 1370.79 1004.26 1325.57 1004.26V1004.26ZM1268.65 1119.76C1286.08 1089.59 1311.79 1085 1325.57 1085C1339.34 1085 1364.99 1089.59 1382.53 1119.87C1386.04 1126.54 1397.7 1151.26 1397.7 1182.01C1397.7 1212.69 1386.05 1237.43 1382.45 1244.23C1364.99 1274.4 1339.34 1278.99 1325.57 1278.99C1311.8 1278.99 1286.08 1274.4 1268.6 1244.15C1265.08 1237.43 1253.4 1212.69 1253.4 1182.01C1253.41 1151.26 1265.08 1126.54 1268.65 1119.76ZM1524.78 896.561V1345.82H1617.61V896.561H1524.78V896.561ZM1659.73 896.561V980.359H1752.59V896.561H1659.73ZM1659.73 1009.66V1345.81H1752.59V1009.66H1659.73V1009.66ZM2029.13 1156.28L1906.91 1122.97C1896.88 1120.34 1891.07 1114.84 1890.14 1107.16C1889.15 1099.19 1894.04 1089.71 1901.16 1085.74C1926.17 1072 1949.11 1076.46 1966.33 1081.81C1992.88 1090.26 1994.4 1100.7 1994.93 1119.84L1995.04 1123.77H2084.81V1119.72C2084.81 1099.33 2084.81 1061.56 2034.53 1029.16C2007.53 1011.76 1970.59 1002.9 1930.47 1004.29C1894.51 1005.58 1861.27 1015.38 1841.6 1030.58C1825.84 1042.48 1799.43 1070.07 1800.11 1119.77C1800.72 1149.28 1809.57 1185.5 1873.25 1203.52L1978.52 1233.66C1992.84 1236.87 1998.67 1250.43 1996.99 1261.7C1994.97 1275.38 1981.39 1290.56 1949.71 1288.07L1945.17 1287.33C1910.59 1281.72 1889.75 1278.31 1879.46 1244.35L1878.61 1241.5H1787.92L1788.02 1245.63C1788.76 1271.44 1799.45 1318.71 1862.42 1346.68C1879.06 1353.82 1905.1 1358.43 1935.91 1359.75C1966.71 1360.46 1997.21 1356.35 2019.73 1348.66C2074.02 1329.21 2093.27 1277.76 2093.27 1239.48C2093.26 1196.49 2060.2 1164.52 2029.13 1156.28V1156.28ZM2395.23 1070.94C2379.47 1045.99 2342.03 1004.26 2267.1 1004.26C2181.53 1004.26 2130.52 1050.59 2115.39 1142.04C2110.88 1169.15 2111.3 1195.67 2112.36 1213.11L2118.44 1253.7C2128.09 1285.97 2150.1 1315.2 2178.93 1334.28C2205.17 1350.78 2235.51 1359.6 2266.51 1359.74C2327.2 1359.74 2405.16 1314.67 2419.89 1250.08L2421.05 1245.08H2329.23L2328.49 1248.2C2324.74 1263.22 2305.44 1277.56 2282.59 1282.11C2255.96 1286.7 2231.37 1276.72 2215.3 1254.71C2207.47 1243.62 2204.94 1232.19 2204.94 1219.25C2204.94 1215.85 2205.29 1212.1 2205.55 1208.54H2423.43L2423.63 1204.61C2423.96 1196.77 2424.27 1188.82 2424.27 1180.82C2424.26 1146.28 2419.26 1109.77 2395.23 1070.94V1070.94ZM2206.27 1143.41C2206.96 1126.46 2213.29 1110 2224.43 1099.24C2236.26 1087.68 2252.39 1082.31 2272.33 1083.23C2317.88 1085.41 2326.69 1120.2 2327.58 1143.43L2206.27 1143.41ZM1636.11 488.26L1518.24 698.253C1515.5 665.025 1508.03 629.371 1500.03 599.073C1491.56 562.157 1480.93 525.77 1468.19 490.101C1428.01 377.42 1347.71 222.808 1193.56 121.241C1266.71 46.4188 1331.77 4.53942 1339.02 0C1363.02 14.3835 1578.74 152.836 1636.11 488.26ZM1077.28 0.0778253H1320.97C1293.44 18.9229 1228.08 66.6906 1161.53 140.022C1081.85 227.97 984.25 371.493 969.049 557.492C956.559 554.6 922.76 546.416 877.327 529.971C875.407 529.426 873.592 528.518 871.763 527.805C869.96 527.221 868.157 526.65 866.38 525.911C822.179 508.908 794.683 494.719 790.364 492.566C791.921 458.87 811.907 209.241 1077.28 0.0778253V0.0778253ZM929.387 719.277L800.805 509.115C811.855 514.238 822.504 518.778 832.879 523.148C833.328 523.404 833.814 523.587 834.319 523.693C836.277 524.536 838.275 525.457 840.311 526.3C879.519 542.46 937.079 563.316 1006 578.296C1124.6 603.976 1300.91 616.764 1470.17 533.926C1473.18 542.785 1479.93 562.81 1486.89 587.984C1503.48 654.649 1508.34 702.987 1509.24 713.428C1482.56 727.189 1250.67 837.484 929.387 719.277V719.277Z" fill="black"/>
</svg>
