<svg width="2483" height="753" viewBox="0 0 2483 753" fill="none" xmlns="http://www.w3.org/2000/svg">
<path fill-rule="evenodd" clip-rule="evenodd" d="M2204.99 519.467V679.617C2204.99 729.931 2169.39 753 2121.17 753H2103.03L2102.96 520.255L1812.78 27.9295H1860.35C1911.08 27.9295 1940.72 40.7647 1967.38 86.4923L2177.88 448.514L2384.96 78.7227C2408.23 37.2393 2431.51 27.8952 2459.91 27.8952H2482.13L2204.99 519.467ZM1945.62 725.105C1875.28 725.105 1857.31 702.173 1835.4 654.186L1618.95 179.454L1485.12 485.582H1650.61C1707.77 485.617 1726.66 512.177 1733.92 542.057L1460.44 542.092C1412.25 653.672 1404.52 670.581 1404.52 670.581C1384.7 716.103 1359.37 725.105 1332.6 725.105H1310.77L1634.15 0H1647.63L1980.12 725.105H1945.62ZM1255.01 695.053C1240.02 739.241 1209.49 753 1156.88 753H836.617V27.8952H857.701C895.385 27.8952 936.082 45.2827 936.082 100.697V695.053H1255.01ZM387.453 753C158.575 753 0 584.191 0 379.341C0 174.217 158.575 5.51059 387.453 5.51059C616.365 5.51059 774.974 174.217 774.974 379.341C774.974 584.26 616.365 753 387.453 753ZM387.521 57.1938C222.888 57.1938 107.439 201.872 107.439 379.649C107.439 557.357 222.922 702.07 387.521 702.07C552.189 702.07 667.603 557.357 667.603 379.649C667.603 201.872 552.189 57.228 387.521 57.228V57.1938Z" fill="#020303"/>
</svg>
