<svg width="2500" height="1788" viewBox="0 0 2500 1788" fill="none" xmlns="http://www.w3.org/2000/svg">
<path fill-rule="evenodd" clip-rule="evenodd" d="M942.808 0C972.042 0 1001.28 3.65429 1030.51 7.30859C1056.09 14.6172 1088.98 25.5801 1118.21 32.8886C1125.52 32.8886 1136.49 32.8886 1147.45 29.2343C1147.45 25.5801 1151.1 25.5801 1154.76 18.2715C1494.56 18.2715 1564.04 21.9258 1936.78 18.2715L1944.13 25.6308C1944.13 168.148 1947.69 314.32 1951.39 460.492C1947.74 1618.9 1947.74 1648.14 1947.74 1750.46C1947.74 1754.11 1944.19 1761.47 1940.48 1765.02C1933.12 1768.68 1922.16 1765.02 1607.89 1768.68C1516.58 1765.02 1516.58 1765.02 1173.03 1768.68C1151.1 1761.42 1151.1 1761.42 1143.79 1750.46C1078.02 1761.47 1015.89 1772.38 953.771 1787.05C862.413 1787.05 862.413 1787.05 792.982 1783.4C756.439 1776.04 719.947 1772.38 679.749 1765.07C672.39 1765.07 665.132 1761.52 650.515 1754.16C624.935 1750.51 595.701 1750.51 562.812 1743.15V1728.58C559.158 1728.58 555.503 1724.93 551.849 1717.57C522.615 1710.21 522.615 1710.21 442.22 1673.77C423.949 1659.1 405.677 1648.19 387.406 1637.17C350.863 1604.29 350.863 1604.29 296.049 1564.14C292.343 1560.38 285.035 1553.07 281.381 1542.16C233.875 1501.91 233.875 1501.91 193.678 1458.11C170.545 1423.14 146.168 1389.02 120.592 1355.79C87.703 1293.62 87.703 1293.62 84.0487 1289.97C65.7773 1249.82 65.7773 1249.82 54.8144 1235.15C36.5429 1176.68 25.5801 1114.61 7.30859 1056.14C7.30859 1030.56 3.65429 1008.64 3.65429 979.401C3.65429 913.573 3.65429 884.339 7.30859 858.81C6.39715 853.313 3.85017 848.219 0 844.192C0 796.687 3.65429 749.181 7.30859 698.021C10.9629 694.366 14.6172 687.058 18.2715 679.749C21.9258 661.478 25.5801 646.861 25.5801 628.589C36.5429 599.355 51.1601 566.466 62.123 533.578C89.2232 486.906 114.816 439.376 138.863 391.06C157.135 369.134 175.406 343.554 193.678 321.629H200.986C204.64 314.269 204.64 310.666 208.295 303.357C215.603 303.357 215.603 299.703 226.566 292.394C230.22 288.689 237.529 281.381 241.183 270.418C244.838 270.418 248.492 266.763 255.801 263.109C259.455 255.801 266.763 248.492 270.418 241.183C274.072 241.183 277.726 241.183 281.381 237.529C285.035 230.22 292.343 222.912 295.998 215.603L416.589 127.9C464.146 102.32 507.947 80.3944 555.453 54.8144C559.107 51.1601 559.107 43.8515 566.415 40.1972C581.033 40.1972 595.65 40.1972 610.267 36.5429C676.044 18.2715 676.044 18.2715 767.402 0C825.87 3.65429 884.339 0 942.808 0ZM1034.16 84.0487C1059.75 91.3573 1092.63 98.6659 1121.87 102.32C1220.53 142.517 1220.53 142.517 1293.62 179.06C1315.55 190.023 1337.42 200.986 1359.35 215.603C1381.37 237.529 1406.95 259.455 1436.09 281.381C1436.09 285.035 1439.74 288.689 1439.74 292.343C1454.41 299.652 1476.33 325.232 1487.35 332.541C1512.82 362.079 1537.18 392.552 1560.38 423.898C1564.04 431.207 1567.74 438.515 1574.95 449.478C1578.6 460.441 1585.96 467.749 1596.98 475.058C1615.2 518.91 1637.12 566.415 1662.7 610.267C1662.7 628.538 1662.7 628.538 1688.28 694.316C1695.64 749.13 1702.95 807.599 1710.21 866.067C1706.55 902.61 1706.55 902.61 1710.21 950.116C1702.95 997.622 1691.99 1048.73 1680.97 1099.89C1644.48 1202.21 1644.48 1202.21 1611.59 1278.9C1575 1337.37 1556.78 1359.3 1545.77 1377.62C1522.28 1408.63 1496.63 1437.96 1469.03 1465.37C1377.72 1542.11 1374.07 1545.77 1348.49 1571.35C1308.24 1593.27 1271.74 1615.15 1227.89 1640.73C1205.97 1651.74 1176.73 1662.65 1143.84 1677.32C1118.26 1680.87 1089.03 1688.23 1059.8 1695.54C1048.83 1695.54 1034.22 1695.54 1019.6 1699.2C1019.6 1695.54 1015.94 1695.54 1008.64 1691.84C1012.29 1454.31 1016 1220.48 1016 982.853C1016 686.906 1012.34 390.908 1008.64 91.2558L1016 83.9472C1019.55 84.0487 1026.86 84.0487 1034.16 84.0487V84.0487ZM935.499 453.132C935.499 456.787 939.153 460.441 942.808 464.095C942.808 475.058 942.808 486.021 946.462 496.984C950.116 697.97 946.462 840.487 950.116 1337.42C946.462 1352.09 946.462 1352.09 950.116 1436.14C942.808 1578.6 942.808 1578.6 946.462 1640.73C946.462 1648.09 950.116 1651.74 950.116 1658.95C946.462 1677.27 946.462 1691.84 942.808 1710.11C939.153 1710.11 939.153 1713.76 935.499 1713.76C902.61 1713.76 869.722 1713.76 836.833 1717.42C778.365 1706.5 719.896 1699.2 661.427 1688.18C650.464 1684.53 643.156 1680.82 632.193 1677.27C635.847 1275.3 632.193 869.671 632.193 463.994C632.193 463.994 635.847 463.994 635.847 460.339C687.007 456.787 738.167 456.787 792.982 453.132H935.499V453.132ZM920.882 65.7773C928.19 69.4316 935.499 69.4316 942.808 73.0859C946.462 80.3944 942.808 91.3573 946.462 102.32C946.462 124.246 946.462 215.603 942.808 237.529C942.808 259.455 942.808 277.726 946.462 299.652C946.462 328.886 942.808 354.466 942.808 383.701C887.993 383.701 833.179 387.355 782.019 387.355C734.513 387.355 690.661 387.355 643.156 383.701C639.501 383.701 639.501 380.046 632.193 380.046C632.193 292.343 635.847 204.64 632.193 116.937L646.81 102.32C668.736 98.6659 690.661 91.3573 712.587 84.0487C749.13 80.3944 785.673 76.7402 825.87 69.4316C855.105 69.4316 887.993 69.4316 920.882 65.7773V65.7773ZM548.144 146.172C555.453 153.48 555.453 160.789 562.761 171.752C566.415 339.849 566.415 339.849 566.415 376.392C555.453 376.392 544.49 383.701 533.527 387.355C493.33 387.355 453.132 387.355 412.935 391.009C409.281 401.972 409.281 401.972 412.935 449.478C453.132 456.787 453.132 456.787 559.107 460.441C562.761 460.441 562.761 467.75 566.415 471.404C570.07 577.378 570.07 679.699 570.07 782.019C570.07 789.327 570.07 800.29 566.415 811.253C570.07 924.587 566.415 939.153 570.07 957.374C566.415 1034.22 566.415 1417.81 562.761 1626.21C559.107 1629.76 551.798 1633.47 540.835 1640.78C511.601 1622.56 478.712 1607.89 445.824 1589.62C416.589 1567.69 383.701 1545.82 354.466 1520.14C325.232 1491 295.998 1465.42 266.763 1436.19C244.838 1403.25 215.603 1370.36 190.023 1337.47C175.406 1315.55 164.443 1293.67 149.826 1271.74C146.172 1257.08 109.629 1183.99 102.32 1158.46C98.6659 1151.1 98.6659 1151.1 80.3437 1096.29C76.6894 1067.05 73.0351 1037.82 62.123 1008.64C54.8144 935.499 54.8144 935.499 54.8144 858.759C58.4687 825.87 62.1737 792.982 62.1737 763.747C69.4823 730.859 76.7909 701.624 84.0995 672.39C95.0624 639.501 106.025 602.958 120.642 570.07C127.9 548.144 135.209 529.873 146.172 507.947L200.986 420.244C215.603 398.318 237.529 376.392 255.801 350.812L321.578 285.035C416.589 215.603 416.589 215.603 475.058 175.406C544.49 142.517 544.49 142.517 548.144 146.172V146.172ZM2335.09 32.8886C2335.09 32.8886 2338.75 32.8886 2342.45 36.5429C2393.33 124.259 2442.05 213.207 2488.57 303.306V317.923C2466.65 317.923 2444.77 317.923 2422.85 314.269C2408.18 292.343 2397.27 270.418 2382.6 244.838C2378.94 244.838 2375.34 241.183 2375.34 241.183C2335.09 237.529 2302.15 237.529 2262.01 237.529C2250.99 233.875 2240.08 237.529 2225.41 241.183C2214.5 266.763 2203.49 288.689 2188.82 317.923C2170.6 314.269 2148.67 314.269 2123.09 314.269V306.961C2152.33 259.455 2177.91 211.949 2207.14 160.789C2207.14 157.135 2210.8 153.43 2218.05 149.826C2250.94 54.8144 2250.94 54.8144 2265.66 36.5429C2287.59 36.5429 2313.17 32.8886 2335.09 32.8886V32.8886ZM2305.86 102.32C2320.53 124.246 2335.09 142.517 2349.66 160.789C2349.66 168.097 2353.31 179.06 2357.02 190.023C2346.11 193.678 2346.11 197.332 2338.8 197.332C2316.87 197.332 2287.64 193.678 2262.06 193.678C2258.4 186.369 2258.4 186.369 2265.71 160.84C2276.62 142.568 2276.62 142.568 2280.28 127.951C2302.15 102.32 2302.15 102.32 2305.86 102.32V102.32ZM2495.88 391.009C2499.54 464.095 2499.54 464.095 2499.54 639.501C2499.54 650.464 2499.54 661.427 2495.88 672.39C2477.66 672.39 2459.29 672.39 2441.07 676.044C2438.62 673.601 2436.17 671.164 2433.71 668.736C2433.71 544.49 2433.71 544.49 2430.16 489.675C2430.16 486.021 2426.5 482.367 2422.8 482.367H2408.13C2382.55 518.91 2353.31 559.107 2331.39 599.304H2298.5C2294.95 599.304 2287.59 599.304 2280.28 595.65C2269.27 577.378 2258.35 559.107 2243.69 537.181C2229.93 516.087 2214.01 496.49 2196.18 478.712H2185.27C2185.27 540.835 2181.61 602.958 2177.91 668.736C2152.33 668.736 2152.33 668.736 2123.09 665.081C2126.75 573.724 2126.75 482.367 2130.45 387.355C2177.96 387.355 2177.96 387.355 2203.49 391.009C2207.14 391.009 2210.85 394.664 2218.05 398.318C2229.07 412.935 2240.08 423.898 2254.65 442.169C2269.21 464.095 2287.54 486.021 2302.15 511.601C2305.81 511.601 2313.17 511.601 2316.82 515.255C2327.73 500.638 2338.75 486.021 2353.31 467.749C2367.98 449.478 2382.55 423.898 2400.92 398.318C2400.92 398.318 2411.83 394.664 2415.49 387.355C2433.71 387.355 2433.71 387.355 2495.88 391.009V391.009ZM2309.51 738.167C2324.08 738.167 2335.09 741.821 2346.11 745.476C2393.61 836.833 2444.72 928.241 2495.88 1019.55L2488.52 1026.91C2466.6 1026.91 2444.72 1026.91 2422.8 1023.25C2419.14 1023.25 2419.14 1023.25 2415.44 1019.6C2415.44 1012.24 2411.78 1001.38 2408.08 990.364C2400.82 975.798 2393.51 961.13 2382.5 946.563C2371.59 946.563 2360.57 942.909 2349.61 939.204C2313.12 939.204 2276.57 942.858 2236.43 942.858C2232.25 947.389 2227.28 951.121 2221.76 953.872C2210.85 975.798 2199.83 997.673 2188.87 1019.6C2170.65 1019.6 2148.72 1019.6 2126.8 1015.94C2126.8 1015.94 2126.8 1012.29 2123.14 1008.69C2148.72 972.093 2170.65 935.55 2199.88 895.403C2218.11 847.847 2240.13 804.046 2262.06 756.54C2265.71 752.886 2269.32 745.577 2276.62 741.923C2287.59 741.821 2298.5 741.821 2309.51 738.167V738.167ZM2313.17 818.562C2335.09 847.796 2335.09 847.796 2353.31 873.376C2353.31 884.339 2349.66 891.648 2346.06 902.61C2324.03 902.61 2291.24 902.61 2262.01 899.007C2262.01 895.353 2262.01 891.648 2258.35 887.993C2283.93 833.179 2283.93 833.179 2298.5 818.562H2313.17V818.562ZM2283.93 1096.29C2305.86 1096.29 2331.44 1096.29 2353.31 1099.94C2400.92 1118.16 2400.92 1118.16 2441.07 1140.19C2444.72 1147.45 2455.74 1154.76 2462.99 1162.12C2466.65 1180.34 2474.01 1198.61 2481.32 1220.58C2481.32 1235.15 2481.32 1249.82 2477.66 1264.39C2470.3 1282.61 2466.65 1297.27 2459.34 1315.55C2426.55 1333.77 2393.61 1352.14 2364.38 1370.36C2342.45 1370.36 2327.78 1377.72 2305.91 1381.37C2251.1 1377.72 2199.94 1377.72 2141.47 1374.01C2141.47 1366.65 2137.81 1359.35 2137.81 1352.09C2141.47 1271.69 2137.81 1169.37 2141.47 1099.89C2188.87 1099.94 2232.77 1096.29 2283.93 1096.29V1096.29ZM2269.27 1140.19C2283.93 1140.19 2302.15 1140.19 2316.87 1143.74C2371.69 1162.07 2371.69 1162.07 2386.25 1169.42C2386.25 1172.98 2386.25 1176.68 2389.91 1176.68C2393.56 1176.68 2393.56 1176.68 2393.56 1180.34C2411.78 1227.84 2411.78 1227.84 2415.49 1249.82C2408.13 1260.73 2404.47 1275.4 2397.27 1289.97C2375.34 1308.19 2375.34 1308.19 2335.09 1326.56C2316.87 1330.21 2291.29 1337.47 2265.71 1341.13H2210.9C2203.54 1333.77 2203.54 1333.77 2203.54 1319.2C2203.54 1260.73 2203.54 1202.21 2207.19 1143.74C2207.19 1143.74 2210.85 1140.19 2210.85 1136.49C2232.77 1140.19 2251.04 1140.19 2269.27 1140.19V1140.19ZM2346.11 1454.41C2364.33 1454.41 2382.6 1458.06 2400.92 1465.42C2437.41 1479.99 2437.41 1479.99 2466.65 1501.91C2474.01 1512.93 2477.66 1523.84 2484.87 1534.8C2492.23 1553.02 2495.88 1567.69 2499.54 1585.96V1626.21C2495.88 1644.43 2488.52 1662.7 2481.32 1680.92C2477.66 1684.58 2477.66 1684.58 2473.96 1695.59C2455.74 1706.61 2437.36 1717.52 2419.14 1728.48C2400.92 1735.74 2386.25 1739.39 2367.98 1746.7C2324.08 1746.7 2276.57 1746.7 2229.12 1743.05C2199.88 1728.48 2170.65 1710.16 2141.37 1691.89C2134.11 1673.67 2126.8 1651.74 2115.79 1629.71C2119.44 1600.48 2119.44 1600.48 2115.79 1578.55C2123.14 1552.97 2134.11 1531.05 2145.02 1505.52C2163.24 1490.95 2185.27 1479.94 2207.19 1461.72C2221.76 1461.72 2240.08 1458.06 2258.35 1454.36L2346.11 1454.41V1454.41ZM2335.09 1494.56C2353.31 1498.21 2371.69 1505.57 2389.91 1512.88C2400.92 1520.14 2408.13 1531.1 2419.14 1542.11C2430.16 1560.33 2430.16 1560.33 2433.71 1604.18C2430.16 1618.85 2426.45 1633.42 2426.45 1655.34C2419.09 1662.7 2415.44 1670.01 2404.42 1680.92C2386.2 1688.28 2371.64 1695.59 2349.61 1706.61C2320.48 1702.95 2283.88 1702.95 2250.99 1699.25L2229.07 1688.23C2221.71 1677.32 2210.85 1666.31 2199.83 1655.34C2192.47 1637.12 2188.82 1622.56 2181.61 1604.18C2181.61 1593.27 2181.61 1582.26 2185.27 1571.4C2192.53 1560.38 2196.18 1545.82 2203.49 1531.15C2221.71 1523.79 2236.38 1512.93 2258.3 1501.91C2280.28 1494.56 2280.28 1494.56 2335.09 1494.56V1494.56Z" fill="black"/>
</svg>
