<svg width="2427" height="976" viewBox="0 0 2427 976" fill="none" xmlns="http://www.w3.org/2000/svg">
<path fill-rule="evenodd" clip-rule="evenodd" d="M55.342 147.311C280.03 16.6791 408.159 0 648.294 0C898.403 0 1005.81 137.298 1255.9 147.311C1626.07 167.323 1801.93 150.825 2172.12 30.7513C2282.13 0.739306 2316.41 81.3334 2426.47 91.3461L2390.25 133.783C2280.19 123.783 2239.71 43.1764 2129.64 73.1884C1759.47 193.262 1583.63 209.747 1213.46 189.748C963.329 179.735 865.965 27.444 615.83 27.444C375.721 27.444 203.21 77.0533 0 202.263L55.342 147.311V147.311ZM513.888 535.379V490.594C513.888 331.52 447.185 238.164 334.789 238.164C214.753 238.164 144.276 352.466 144.276 508.687C144.276 683.986 221.42 781.156 339.548 781.156C440.518 781.156 513.888 682.106 513.888 591.577H446.238C438.625 652.548 409.079 718.292 340.482 718.292C259.525 718.292 214.753 632.548 214.753 535.392H513.888V535.379V535.379ZM214.753 472.502C215.7 369.612 269.058 301.015 331.922 301.015C408.133 301.015 443.371 369.612 443.371 472.502H214.753Z" fill="black"/>
<path fill-rule="evenodd" clip-rule="evenodd" d="M684.92 771.649V81.9299H614.417V771.649H684.92ZM995.183 238.151C846.575 238.151 789.405 361.999 789.405 509.66C789.405 657.321 846.575 781.143 995.183 781.143C1143.75 781.143 1200.92 657.321 1200.92 509.66C1200.92 361.999 1143.75 238.151 995.183 238.151ZM995.183 301.015C1082.81 301.015 1130.44 384.865 1130.44 509.66C1130.44 634.442 1082.82 718.266 995.183 718.266C907.52 718.266 859.882 634.442 859.882 509.66C859.882 384.878 907.52 301.015 995.183 301.015ZM1656.45 81.9299H1585.94V301.015H1584.05C1558.32 262.91 1512.61 238.151 1461.16 238.151C1326.83 238.151 1269.68 361.999 1269.68 509.66C1269.68 657.321 1326.82 781.143 1456.39 781.143C1520.2 781.143 1556.42 763.997 1590.72 717.332H1592.6V771.649H1656.43V81.9299H1656.45ZM1340.18 509.66C1340.18 367.719 1379.22 301.015 1464.96 301.015C1544.98 301.015 1589.74 355.333 1589.74 509.66C1589.74 663.948 1544.98 718.266 1464.96 718.266C1381.14 718.266 1340.18 640.149 1340.18 509.66ZM2132.9 247.684H2058.64L1927.16 700.186H1925.23L1796.65 247.684H1725.23L1890.01 786.863L1827.13 975.482H1901.42L2132.9 247.684V247.684Z" fill="black"/>
</svg>
