<svg width="2280" height="1076" viewBox="0 0 2280 1076" fill="none" xmlns="http://www.w3.org/2000/svg">
<path fill-rule="evenodd" clip-rule="evenodd" d="M1354.94 643.651C1241.03 643.651 1149.52 739.834 1149.52 859.351C1149.52 977.959 1241.03 1075.06 1354.94 1075.06C1468.88 1075.06 1561.31 977.959 1561.31 859.351C1561.31 739.834 1468.88 643.651 1354.94 643.651V643.651ZM1991.79 921.917H2119.71L2169.21 1037.71L2128.12 1060.14V1065.74H2279.4V1060.14L2240.19 1037.71L2067.43 652.055L1906.8 1035.86L1864.81 1060.14V1065.74H1989V1060.14L1948.82 1037.71L1991.79 921.917V921.917ZM1917.09 683.805L1959.11 659.525V653.923H1834.91V659.525L1875.07 681.937L1773.28 957.415L1654.7 681.937L1695.78 659.525V653.923H1544.52V659.525L1583.73 681.937L1756.48 1067.59L1917.09 683.805ZM430.48 909.79C430.48 1001.3 505.185 1076 596.7 1076C689.149 1076 763.854 1001.29 763.854 909.79V681.937L799.34 659.525V653.923H693.818V659.525L728.369 681.937V920.996C728.379 936.082 725.415 951.023 719.647 964.963C713.878 978.903 705.418 991.569 694.75 1002.24C684.082 1012.91 671.416 1021.37 657.476 1027.13C643.536 1032.9 628.595 1035.87 613.509 1035.86C550.943 1035.86 499.582 984.496 499.582 920.996V681.937L535.068 659.525V653.923H394.994V659.525L429.546 681.937L430.48 909.79V909.79ZM1216.98 0L1241.96 170.215C1256.9 317.746 1201.8 368.186 1148.59 378.458C1100.02 387.796 1006.65 343.906 1028.11 170.215L1049.59 0.259401L1026.58 0L952.474 430.739H1100.02L1077.85 538.388H1209.69L1181.27 430.739H1327.87L1238.98 0H1216.98ZM48.5588 1036.78L0 1060.14V1065.74H205.441C307.228 1065.74 367.926 978.906 367.926 907.922C367.926 837.899 311.897 780.935 249.318 766.928C292.274 742.649 318.421 703.428 318.421 652.068C318.421 601.641 284.803 539.075 187.685 539.075H0V544.691L48.5588 567.103V723.038L88.7132 770.663L48.5588 818.301V1036.78V1036.78ZM837.613 1065.73H1113.08L1142.03 970.476L1139.23 969.542L1094.4 1021.84H946.871V681.924L982.356 659.513V653.91H842.296V659.513L877.781 681.924V1037.71L837.626 1060.14V1065.73H837.613V1065.73ZM1354.94 677.268C1430.58 677.268 1492.21 758.511 1492.21 859.351C1492.21 959.27 1430.58 1041.45 1354.94 1041.45C1280.23 1041.45 1218.6 959.27 1218.6 859.351C1218.6 758.511 1280.23 677.268 1354.94 677.268V677.268ZM123.252 1026.5V794.93H173.678C213.833 794.93 294.141 818.288 296.009 906.989C297.877 996.636 226.906 1026.52 183.95 1026.52H123.252V1026.5ZM123.252 755.709V577.349H155.002C184.884 577.349 246.516 583.886 246.516 663.261C246.516 742.636 190.487 755.709 157.803 755.709H123.252ZM2004.87 887.365L2050.61 762.246L2104.8 887.365H2004.87V887.365Z" fill="black"/>
</svg>
