<svg width="2500" height="1300" viewBox="0 0 2500 1300" fill="none" xmlns="http://www.w3.org/2000/svg">
<g clip-path="url(#clip0)">
<path d="M619.66 791.304V511.153H774.48C865.488 510.006 921.519 552.029 921.928 643.856C921.519 749.691 862.744 790.158 772.023 791.304H619.66ZM1359.36 791.304H1270.89V511.153H1347.07L1472.4 646.314V511.153H1560.87V791.304H1474.86L1359.36 656.144V791.304ZM1155.39 791.304H1243.86L1123.44 511.153H1044.8L921.928 791.304H1007.94L1017.77 769.187H1148.02L1155.39 791.304ZM1821.36 791.304H1909.83L1789.41 511.153H1710.77L1587.9 791.304H1673.91L1683.74 769.187H1811.53L1821.36 791.304Z" fill="black"/>
<path d="M1251.23 -1.52588e-05L2499.62 643.856L1251.23 228.544L0.37793 643.856L1251.23 -1.52588e-05ZM1251.23 1300L2499.62 653.686L1251.23 1069L0.37793 653.686L1251.23 1300Z" fill="black"/>
<path d="M710.586 724.953H764.65C806.345 724.83 829.691 702.262 828.544 648.771C829.691 590.939 810.605 575.375 762.193 575.047H710.586V724.953V724.953ZM1116.07 700.378H1047.26L1084.12 621.739L1116.07 700.378ZM1782.04 700.378H1713.23L1747.64 621.739L1782.04 700.378Z" fill="white"/>
</g>
<defs>
<clipPath id="clip0">
<rect width="2500" height="1300" fill="white"/>
</clipPath>
</defs>
</svg>
